<svg xmlns="http://www.w3.org/2000/svg" xmlns:xlink="http://www.w3.org/1999/xlink" viewBox="0 0 1702.26 2451.86"><defs><style>.cls-1{fill:none;stroke-miterlimit:10;stroke-width:9px;stroke:url(#Degradado_sin_nombre_6);}.cls-2{fill:url(#Degradado_sin_nombre_6-2);}.cls-3{font-size:123.84px;fill:#597eaa;font-family:SweetSansPro-Bold, Sweet Sans Pro;font-weight:700;}.cls-4{letter-spacing:-0.01em;}.cls-5{letter-spacing:0em;}.cls-6{font-size:76.87px;fill:#042d5c;font-family:Poppins-Light, Poppins;font-weight:300;}</style><linearGradient id="Degradado_sin_nombre_6" x1="4.27" y1="1383.04" x2="1701.35" y2="1383.04" gradientUnits="userSpaceOnUse"><stop offset="0" stop-color="#042d5c"/><stop offset="1" stop-color="#597eaa"/></linearGradient><linearGradient id="Degradado_sin_nombre_6-2" x1="0" y1="121.83" x2="1702.26" y2="121.83" xlink:href="#Degradado_sin_nombre_6"/></defs><g id="Capa_2" data-name="Capa 2"><g id="Capa_1-2" data-name="Capa 1"><rect class="cls-1" x="8.77" y="318.72" width="1688.08" height="2128.64" rx="117.75"/><path class="cls-2" d="M1580.44,243.66H121.83A121.83,121.83,0,0,1,121.83,0H1580.44a121.83,121.83,0,0,1,0,243.66ZM121.83,8.15a113.68,113.68,0,0,0,0,227.36H1580.44a113.68,113.68,0,0,0,0-227.36Z"/><text class="cls-3" transform="translate(591.47 161.38)">BÁSICO<tspan class="cls-4" x="326.68" y="0"></tspan><tspan class="cls-5" x="420.05" y="0"></tspan></text><text class="cls-6" transform="translate(121.23 512.89)">- Estudio de mercado <tspan x="0" y="150.07">- Análisis de la competencia</tspan><tspan x="0" y="300.15">- Estudio del público objetivo</tspan><tspan x="0" y="450.22">- Creación de cuentas publicitarias</tspan><tspan x="0" y="600.29">- Diseño de estratégia publicitaria</tspan><tspan x="0" y="750.36">- Plan de presupuesto y metas </tspan><tspan x="0" y="900.44">- Búsqueda de ideas para anuncios</tspan><tspan x="0" y="1050.51">- Textos llamativos para anuncios</tspan><tspan x="0" y="1200.58">- Diseño de creativos (gráficos/videos) </tspan><tspan x="0" y="1350.66">- Implementación de estrategia</tspan><tspan x="0" y="1500.73">- Diseño de anuncios de testeo A/B</tspan><tspan x="0" y="1650.8">- Monitoreo continuo</tspan><tspan x="0" y="1800.87">- Optimización</tspan></text></g></g></svg>
