<svg width="37" height="37" viewBox="0 0 37 37" fill="none" xmlns="http://www.w3.org/2000/svg">
<path d="M4 11.3333C4 9.38841 4.77262 7.52315 6.14788 6.14788C7.52315 4.77262 9.38841 4 11.3333 4H26C27.9449 4 29.8102 4.77262 31.1854 6.14788C32.5607 7.52315 33.3333 9.38841 33.3333 11.3333V26C33.3333 27.9449 32.5607 29.8102 31.1854 31.1854C29.8102 32.5607 27.9449 33.3333 26 33.3333H11.3333C9.38841 33.3333 7.52315 32.5607 6.14788 31.1854C4.77262 29.8102 4 27.9449 4 26V11.3333Z" stroke="white" stroke-width="2.75" stroke-linecap="round" stroke-linejoin="round"/>
<path d="M13.166 18.6665C13.166 20.1252 13.7455 21.5241 14.7769 22.5556C15.8084 23.587 17.2073 24.1665 18.666 24.1665C20.1247 24.1665 21.5237 23.587 22.5551 22.5556C23.5866 21.5241 24.166 20.1252 24.166 18.6665C24.166 17.2078 23.5866 15.8089 22.5551 14.7774C21.5237 13.746 20.1247 13.1665 18.666 13.1665C17.2073 13.1665 15.8084 13.746 14.7769 14.7774C13.7455 15.8089 13.166 17.2078 13.166 18.6665Z" stroke="white" stroke-width="2.75" stroke-linecap="round" stroke-linejoin="round"/>
<path d="M26.916 10.4165V10.4348" stroke="white" stroke-width="2.75" stroke-linecap="round" stroke-linejoin="round"/>
</svg>
