<svg width="268" height="62" viewBox="0 0 268 62" fill="none" xmlns="http://www.w3.org/2000/svg">
<path d="M29.5994 7.10179C31.9209 7.10179 34.1571 7.54561 36.3079 8.43325C38.4929 9.28675 40.3023 10.7206 41.7362 12.7349C43.17 14.715 43.887 17.2755 43.887 20.4164C43.887 23.5231 43.1871 26.0836 41.7874 28.0979C40.3876 30.078 38.5953 31.5119 36.4103 32.3995C34.2595 33.2872 31.9892 33.731 29.5994 33.731H10.4468V43H2.45808V7.10179H29.5994ZM27.0389 26.5616C28.8483 26.5616 30.3505 26.4592 31.5454 26.2543C32.7403 26.0495 33.7645 25.5032 34.618 24.6156C35.4715 23.6938 35.8982 22.2941 35.8982 20.4164C35.8982 18.5728 35.4715 17.2072 34.618 16.3196C33.7645 15.4319 32.7232 14.8686 31.4941 14.6297C30.2993 14.3907 28.8142 14.2712 27.0389 14.2712H10.4468V26.5616H27.0389ZM89.946 20.4164C89.946 23.3866 89.2802 25.8446 87.9488 27.7906C86.6173 29.7366 84.8762 31.2217 82.7254 32.2459L89.7411 43H80.1136L74.4293 33.731H56.5058V43H48.5171V7.10179H75.6584C77.9799 7.10179 80.2161 7.54561 82.3669 8.43325C84.5518 9.28675 86.3613 10.7206 87.7951 12.7349C89.229 14.715 89.946 17.2755 89.946 20.4164ZM73.4051 26.5616C75.1121 26.5616 76.546 26.4592 77.7068 26.2543C78.8675 26.0495 79.8576 25.5032 80.677 24.6156C81.5305 23.6938 81.9572 22.2941 81.9572 20.4164C81.9572 18.5728 81.5305 17.2072 80.677 16.3196C79.8235 15.4319 78.7993 14.8686 77.6044 14.6297C76.4436 14.3907 75.0439 14.2712 73.4051 14.2712H56.5058V26.5616H73.4051ZM103.019 7.10179V43H95.0298V7.10179H103.019ZM131.282 43.5121C126.024 43.5121 121.688 43.1536 118.274 42.4367C114.894 41.6856 112.283 40.3542 110.439 38.4423C108.63 36.5305 107.725 33.8675 107.725 30.4535H116.584C116.584 31.9216 117.028 33.0823 117.916 33.9358C118.803 34.7893 120.34 35.4209 122.525 35.8306C124.744 36.2403 127.833 36.4451 131.794 36.4451C135.071 36.4451 137.666 36.3086 139.578 36.0354C141.489 35.7623 142.872 35.3356 143.726 34.7552C144.579 34.1748 145.006 33.3896 145.006 32.3995C145.006 31.307 144.63 30.5048 143.879 29.9927C143.162 29.4806 141.848 29.105 139.936 28.866C138.024 28.5929 134.918 28.3539 130.616 28.1491C125.256 27.9101 121.023 27.4151 117.916 26.664C114.809 25.9129 112.522 24.7692 111.054 23.2329C109.62 21.6966 108.903 19.597 108.903 16.9341C108.903 13.1787 110.695 10.5329 114.28 8.99656C117.865 7.42612 123.19 6.6409 130.257 6.6409C137.324 6.6409 142.701 7.63096 146.389 9.61108C150.11 11.5571 151.97 14.6979 151.97 19.0337H143.162C143.162 17.5998 142.684 16.5074 141.728 15.7563C140.807 14.9711 139.356 14.4248 137.376 14.1176C135.396 13.8103 132.681 13.6567 129.233 13.6567C126.126 13.6567 123.72 13.7762 122.013 14.0151C120.34 14.2541 119.145 14.6467 118.428 15.193C117.745 15.7051 117.404 16.4391 117.404 17.395C117.404 18.3851 117.762 19.1361 118.479 19.6482C119.196 20.1262 120.459 20.5017 122.269 20.7749C124.078 21.048 126.861 21.287 130.616 21.4918C136.317 21.7991 140.67 22.2087 143.674 22.7208C146.713 23.2329 149.103 24.2059 150.844 25.6398C152.619 27.0395 153.507 29.1904 153.507 32.0923C153.507 35.1307 152.602 37.4864 150.793 39.1592C148.983 40.8321 146.474 41.9758 143.265 42.5903C140.056 43.2048 136.061 43.5121 131.282 43.5121ZM211.658 43H203.669V17.8559L188.152 43H181.29L165.927 17.9583V43H157.938V7.10179H168.846L184.772 33.0653L200.699 7.10179H211.658V43ZM229.312 35.4209L225.266 43H215.844L235.15 7.10179H246.467L265.774 43H256.351L252.305 35.4209H229.312ZM241.141 14.6297H240.425L233.102 28.3539H248.516L241.141 14.6297Z" fill="white"/>
<path d="M2 49.3101H267L2 61.4301V49.3101Z" fill="white"/>
</svg>
