<svg width="42" height="36" viewBox="0 0 42 36" fill="none" xmlns="http://www.w3.org/2000/svg">
<path d="M27.5994 0.101789C29.9209 0.101789 32.1571 0.545609 34.3079 1.43325C36.4929 2.28675 38.3023 3.72063 39.7362 5.73489C41.17 7.71501 41.887 10.2755 41.887 13.4164C41.887 16.5231 41.1871 19.0836 39.7874 21.0979C38.3876 23.078 36.5953 24.5119 34.4103 25.3995C32.2595 26.2872 29.9892 26.731 27.5994 26.731H8.44684V36H0.45808V0.101789H27.5994ZM25.0389 19.5616C26.8483 19.5616 28.3505 19.4592 29.5454 19.2543C30.7403 19.0495 31.7645 18.5032 32.618 17.6156C33.4715 16.6938 33.8982 15.2941 33.8982 13.4164C33.8982 11.5728 33.4715 10.2072 32.618 9.31959C31.7645 8.43195 30.7232 7.86864 29.4941 7.62966C28.2993 7.39068 26.8142 7.27119 25.0389 7.27119H8.44684V19.5616H25.0389Z" fill="white"/>
</svg>
