<svg width="42" height="36" viewBox="0 0 42 36" fill="none" xmlns="http://www.w3.org/2000/svg">
<path d="M41.887 13.4164C41.887 16.3866 41.2212 18.8446 39.8898 20.7906C38.5583 22.7366 36.8172 24.2217 34.6664 25.2459L41.6821 36H32.0547L26.3703 26.731H8.44684V36H0.45808V0.101789H27.5994C29.9209 0.101789 32.1571 0.545609 34.3079 1.43325C36.4929 2.28675 38.3023 3.72063 39.7362 5.73489C41.17 7.71501 41.887 10.2755 41.887 13.4164ZM25.3461 19.5616C27.0531 19.5616 28.487 19.4592 29.6478 19.2543C30.8085 19.0495 31.7986 18.5032 32.618 17.6156C33.4715 16.6938 33.8982 15.2941 33.8982 13.4164C33.8982 11.5728 33.4715 10.2072 32.618 9.31959C31.7645 8.43195 30.7403 7.86864 29.5454 7.62966C28.3846 7.39068 26.9849 7.27119 25.3461 7.27119H8.44684V19.5616H25.3461Z" fill="white"/>
</svg>
