<svg width="57" height="58" viewBox="0 0 57 58" fill="none" xmlns="http://www.w3.org/2000/svg">
<path d="M43.887 20.4164C43.887 23.3866 43.2212 25.8446 41.8898 27.7906C40.5583 29.7366 38.8172 31.2217 36.6664 32.2459L43.6821 43H34.0547L28.3703 33.731H10.4468V43H2.45808V7.10179H29.5994C31.9209 7.10179 34.1571 7.54561 36.3079 8.43325C38.4929 9.28675 40.3023 10.7206 41.7362 12.7349C43.17 14.715 43.887 17.2755 43.887 20.4164ZM27.3461 26.5616C29.0531 26.5616 30.487 26.4592 31.6478 26.2543C32.8085 26.0495 33.7986 25.5032 34.618 24.6156C35.4715 23.6938 35.8982 22.2941 35.8982 20.4164C35.8982 18.5728 35.4715 17.2072 34.618 16.3196C33.7645 15.4319 32.7403 14.8686 31.5454 14.6297C30.3846 14.3907 28.9849 14.2712 27.3461 14.2712H10.4468V26.5616H27.3461Z" fill="white"/>
<path d="M53.6005 7.10179V43H45.6117V7.10179H53.6005Z" fill="white"/>
</svg>
