<svg width="47" height="38" viewBox="0 0 47 38" fill="none" xmlns="http://www.w3.org/2000/svg">
<path d="M23.861 37.5121C18.6035 37.5121 14.2677 37.1536 10.8537 36.4367C7.47385 35.6856 4.86214 34.3542 3.01858 32.4423C1.20916 30.5305 0.30445 27.8675 0.30445 24.4535H9.16378C9.16378 25.9216 9.6076 27.0823 10.4952 27.9358C11.3829 28.7893 12.9192 29.4209 15.1041 29.8306C17.3232 30.2403 20.4129 30.4451 24.3732 30.4451C27.6506 30.4451 30.2452 30.3086 32.1571 30.0354C34.0689 29.7623 35.4516 29.3356 36.3051 28.7552C37.1586 28.1748 37.5853 27.3896 37.5853 26.3995C37.5853 25.307 37.2098 24.5048 36.4587 23.9927C35.7418 23.4806 34.4274 23.105 32.5155 22.866C30.6037 22.5929 27.497 22.3539 23.1953 22.1491C17.8353 21.9101 13.602 21.4151 10.4952 20.664C7.3885 19.9129 5.10112 18.7692 3.6331 17.2329C2.19922 15.6966 1.48228 13.597 1.48228 10.9341C1.48228 7.17871 3.27463 4.53286 6.85933 2.99656C10.444 1.42612 15.7699 0.640899 22.8369 0.640899C29.9038 0.640899 35.2809 1.63096 38.968 3.61108C42.6893 5.55706 44.5499 8.69794 44.5499 13.0337H35.7418C35.7418 11.5998 35.2638 10.5074 34.3079 9.75628C33.3861 8.97106 31.9352 8.42482 29.955 8.11756C27.9749 7.8103 25.2608 7.65667 21.8127 7.65667C18.7059 7.65667 16.299 7.77616 14.592 8.01514C12.9192 8.25412 11.7243 8.64673 11.0073 9.19297C10.3245 9.70507 9.98314 10.4391 9.98314 11.395C9.98314 12.3851 10.3416 13.1361 11.0586 13.6482C11.7755 14.1262 13.0387 14.5017 14.8481 14.7749C16.6575 15.048 19.4399 15.287 23.1953 15.4918C28.8967 15.7991 33.2496 16.2087 36.2539 16.7208C39.2923 17.2329 41.6821 18.2059 43.4233 19.6398C45.1986 21.0395 46.0862 23.1904 46.0862 26.0923C46.0862 29.1307 45.1815 31.4864 43.3721 33.1592C41.5626 34.8321 39.0534 35.9758 35.8442 36.5903C32.635 37.2048 28.6407 37.5121 23.861 37.5121Z" fill="white"/>
</svg>
