<svg width="37" height="37" viewBox="0 0 37 37" fill="none" xmlns="http://www.w3.org/2000/svg">
<path d="M34 11.4688V18.4168C30.876 18.1069 27.8972 16.9445 25.3889 15.0565V22.8071C25.3884 24.9104 24.7955 26.9709 23.6782 28.7527C22.5608 30.5346 20.9642 31.9656 19.0712 32.8818C17.1782 33.7981 15.0654 34.1625 12.9749 33.9334C10.8843 33.7042 8.9006 32.8908 7.25097 31.5862C5.60134 30.2817 4.35253 28.5388 3.6476 26.5572C2.94267 24.5757 2.81015 22.4356 3.2652 20.3822C3.72026 18.3288 4.74449 16.4451 6.22056 14.947C7.69662 13.4489 9.56482 12.3968 11.6111 11.9115V19.3624C11.024 19.8028 10.5592 20.386 10.2608 21.0565C9.96241 21.7271 9.84038 22.4628 9.90629 23.1938C9.9722 23.9248 10.2239 24.6269 10.6374 25.2332C11.0509 25.8396 11.6125 26.3302 12.2689 26.6585C12.9254 26.9867 13.6548 27.1417 14.388 27.1087C15.1211 27.0757 15.8337 26.8558 16.458 26.47C17.0823 26.0841 17.5976 25.545 17.955 24.904C18.3124 24.2629 18.5 23.5411 18.5 22.8071V3H25.5318C25.8904 5.11575 26.8982 7.06757 28.4155 8.58497C29.9328 10.1024 31.8844 11.1102 34 11.4688Z" stroke="white" stroke-width="2.75" stroke-linecap="round" stroke-linejoin="round"/>
</svg>
