<svg width="37" height="37" viewBox="0 0 37 37" fill="none" xmlns="http://www.w3.org/2000/svg">
<path d="M3 33.9709L5.84045 27.4265C3.66736 24.3404 2.69472 20.5669 3.10509 16.8143C3.51545 13.0617 5.2806 9.58795 8.06928 7.04488C10.858 4.50182 14.4784 3.0643 18.2513 3.00211C22.0242 2.93991 25.69 4.25731 28.561 6.70707C31.4319 9.15684 33.3105 12.5706 33.8442 16.3076C34.3779 20.0446 33.5301 23.8481 31.4598 27.0041C29.3895 30.1602 26.2391 32.4519 22.5998 33.4493C18.9605 34.4466 15.0825 34.0809 11.6935 32.4209L3 33.9709Z" stroke="white" stroke-width="2.75" stroke-linecap="round" stroke-linejoin="round"/>
<path d="M13 14.7692C13 15.014 13.0973 15.2488 13.2704 15.4219C13.4435 15.5951 13.6783 15.6923 13.9231 15.6923C14.1679 15.6923 14.4027 15.5951 14.5758 15.4219C14.7489 15.2488 14.8462 15.014 14.8462 14.7692V12.9231C14.8462 12.6783 14.7489 12.4435 14.5758 12.2704C14.4027 12.0973 14.1679 12 13.9231 12C13.6783 12 13.4435 12.0973 13.2704 12.2704C13.0973 12.4435 13 12.6783 13 12.9231V14.7692ZM13 14.7692C13 17.2174 13.9725 19.5653 15.7036 21.2964C17.4347 23.0275 19.7826 24 22.2308 24M22.2308 24H24.0769C24.3217 24 24.5565 23.9027 24.7296 23.7296C24.9027 23.5565 25 23.3217 25 23.0769C25 22.8321 24.9027 22.5973 24.7296 22.4242C24.5565 22.2511 24.3217 22.1538 24.0769 22.1538H22.2308C21.986 22.1538 21.7512 22.2511 21.5781 22.4242C21.4049 22.5973 21.3077 22.8321 21.3077 23.0769C21.3077 23.3217 21.4049 23.5565 21.5781 23.7296C21.7512 23.9027 21.986 24 22.2308 24Z" stroke="white" stroke-width="2.75" stroke-linecap="round" stroke-linejoin="round"/>
</svg>
